<svg id="Camada_1" data-name="Camada 1" xmlns="http://www.w3.org/2000/svg" viewBox="0 0 21.16 24.21"><title>calculator-dd</title><g id="calculator"><g id="Grupo_6" data-name="Grupo 6"><g id="Grupo_5" data-name="Grupo 5"><path id="Caminho_19" data-name="Caminho 19" d="M19.72,0H1.43A1.43,1.43,0,0,0,0,1.43V22.78a1.43,1.43,0,0,0,1.43,1.43H19.72a1.43,1.43,0,0,0,1.44-1.43V1.43A1.43,1.43,0,0,0,19.72,0ZM1.15,1.43a.28.28,0,0,1,.28-.28H19.72a.28.28,0,0,1,.29.28v5H1.15ZM6.67,23.07H1.43a.28.28,0,0,1-.28-.29v-6.9H6.67Zm0-8.34H1.15V7.55H6.67Zm6.67,8.34H7.82V15.88h5.52Zm0-8.34H7.82V7.55h5.52ZM20,22.78a.29.29,0,0,1-.28.29H14.49V7.55H20Z" transform="translate(0 0)"/></g></g><g id="Grupo_8" data-name="Grupo 8"><g id="Grupo_7" data-name="Grupo 7"><path id="Caminho_20" data-name="Caminho 20" d="M5.33,10.57H4.48V9.72a.57.57,0,0,0-.57-.57.58.58,0,0,0-.58.57v.85H2.49a.58.58,0,0,0,0,1.15h.84v.84a.57.57,0,0,0,.58.57.56.56,0,0,0,.57-.57v-.84h.85a.58.58,0,0,0,0-1.15Z" transform="translate(0 0)"/></g></g><g id="Grupo_10" data-name="Grupo 10"><g id="Grupo_9" data-name="Grupo 9"><path id="Caminho_21" data-name="Caminho 21" d="M12,10.57H9.13a.58.58,0,0,0,0,1.15H12a.58.58,0,1,0,0-1.15Z" transform="translate(0 0)"/></g></g><g id="Grupo_12" data-name="Grupo 12"><g id="Grupo_11" data-name="Grupo 11"><path id="Caminho_22" data-name="Caminho 22" d="M4.72,19.47l.7-.69A.57.57,0,1,0,4.61,18h0l-.7.69L3.22,18a.57.57,0,0,0-.81.81h0l.69.69-.69.7a.57.57,0,1,0,.81.81l.69-.69.7.69a.57.57,0,1,0,.81-.81Z" transform="translate(0 0)"/></g></g><g id="Grupo_14" data-name="Grupo 14"><g id="Grupo_13" data-name="Grupo 13"><path id="Caminho_23" data-name="Caminho 23" d="M12.08,18a.58.58,0,0,0-.81,0l-2.2,2.2a.58.58,0,0,0,0,.81.56.56,0,0,0,.81,0h0l2.2-2.2A.56.56,0,0,0,12.08,18Z" transform="translate(0 0)"/></g></g><g id="Grupo_16" data-name="Grupo 16"><g id="Grupo_15" data-name="Grupo 15"><circle id="Elipse_7" data-name="Elipse 7" cx="9.48" cy="18.38" r="0.49"/></g></g><g id="Grupo_18" data-name="Grupo 18"><g id="Grupo_17" data-name="Grupo 17"><circle id="Elipse_8" data-name="Elipse 8" cx="11.68" cy="20.57" r="0.49"/></g></g><g id="Grupo_20" data-name="Grupo 20"><g id="Grupo_19" data-name="Grupo 19"><path id="Caminho_24" data-name="Caminho 24" d="M18.7,13.73H15.77a.58.58,0,0,0-.58.58.57.57,0,0,0,.58.57H18.7a.56.56,0,0,0,.57-.57A.57.57,0,0,0,18.7,13.73Z" transform="translate(0 0)"/></g></g><g id="Grupo_22" data-name="Grupo 22"><g id="Grupo_21" data-name="Grupo 21"><path id="Caminho_25" data-name="Caminho 25" d="M18.7,15.74H15.77a.57.57,0,1,0,0,1.14H18.7a.57.57,0,1,0,0-1.14Z" transform="translate(0 0)"/></g></g></g></svg>