<svg xmlns="http://www.w3.org/2000/svg" width="21.778" height="19.849" viewBox="0 0 21.778 19.849">
  <g id="curved-arrows" transform="translate(0 -20.461)" opacity="0.36">
    <g id="Grupo_4" data-name="Grupo 4" transform="translate(0 20.461)">
      <g id="Grupo_2" data-name="Grupo 2" transform="translate(1.194)">
        <path id="Caminho_9" data-name="Caminho 9" d="M43.8,29.025a.8.8,0,0,1-.756-.6,8.325,8.325,0,0,0-16.222,0,.751.751,0,0,1-1.461-.353,9.826,9.826,0,0,1,19.144,0,.751.751,0,0,1-.554.907C43.9,28.975,43.846,29.025,43.8,29.025Z" transform="translate(-25.335 -20.461)" fill="#e4e4e4"/>
      </g>
      <path id="Caminho_10" data-name="Caminho 10" d="M354,122.791a.639.639,0,0,1-.3-.05l-2.62-1.108a.767.767,0,0,1,.6-1.411l1.914.806.806-1.914a.767.767,0,1,1,1.411.6l-1.108,2.62c-.1.2-.2.353-.4.4A.638.638,0,0,1,354,122.791Z" transform="translate(-334.091 -114.025)" fill="#e4e4e4"/>
      <g id="Grupo_3" data-name="Grupo 3" transform="translate(1.345 11.313)">
        <path id="Caminho_11" data-name="Caminho 11" d="M38.136,269.04a9.763,9.763,0,0,1-9.572-7.607.751.751,0,1,1,1.461-.353,8.325,8.325,0,0,0,16.222,0,.751.751,0,1,1,1.461.353A9.722,9.722,0,0,1,38.136,269.04Z" transform="translate(-28.542 -260.504)" fill="#e4e4e4"/>
      </g>
      <path id="Caminho_12" data-name="Caminho 12" d="M.762,259.618a.639.639,0,0,1-.3-.05.759.759,0,0,1-.4-1.008l1.108-2.62a.759.759,0,0,1,1.008-.4l2.62,1.108a.767.767,0,1,1-.6,1.411l-1.914-.806-.806,1.864A.758.758,0,0,1,.762,259.618Z" transform="translate(0 -244.403)" fill="#e4e4e4"/>
    </g>
  </g>
</svg>
