<svg xmlns="http://www.w3.org/2000/svg" width="19.264" height="28.105" viewBox="0 0 19.264 28.105">
  <g id="save-money" transform="translate(-8.982)">
    <path id="Caminho_13" data-name="Caminho 13" d="M188.93,156.895a.633.633,0,0,0-.228-.008,1.51,1.51,0,0,1-1.336-1.5.664.664,0,0,0-1.328,0,2.842,2.842,0,0,0,2.089,2.736v.664a.664.664,0,1,0,1.328,0v-.624a2.836,2.836,0,0,0-.581-5.612,1.508,1.508,0,1,1,1.508-1.508.664.664,0,0,0,1.328,0,2.842,2.842,0,0,0-2.255-2.777v-.6a.664.664,0,1,0-1.328,0v.645a2.836,2.836,0,0,0,.747,5.572,1.507,1.507,0,0,1,.055,3.013Zm0,0" transform="translate(-170.261 -134.795)" fill="#e4e4e4"/>
    <path id="Caminho_14" data-name="Caminho 14" d="M104.2,116.124a9.632,9.632,0,1,0,9.632-9.632A9.632,9.632,0,0,0,104.2,116.124Zm9.632-8.3a8.3,8.3,0,1,1-8.3,8.3A8.3,8.3,0,0,1,113.827,107.821Zm0,0" transform="translate(-95.214 -97.65)" fill="#e4e4e4"/>
    <path id="Caminho_16" data-name="Caminho 16" d="M213.532,6.974V.664a.664.664,0,0,0-1.328,0v6.31a.664.664,0,0,0,1.328,0Zm0,0" transform="translate(-194.254)" fill="#e4e4e4"/>
    <path id="Caminho_17" data-name="Caminho 17" d="M273.532,43.653V40.664a.664.664,0,0,0-1.328,0v2.989a.664.664,0,0,0,1.328,0Zm0,0" transform="translate(-249.272 -36.679)" fill="#e4e4e4"/>
    <path id="Caminho_18" data-name="Caminho 18" d="M153.532,43.653V40.664a.664.664,0,0,0-1.328,0v2.989a.664.664,0,0,0,1.328,0Zm0,0" transform="translate(-139.235 -36.679)" fill="#e4e4e4"/>
  </g>
</svg>
