<svg xmlns="http://www.w3.org/2000/svg" width="67.564" height="89.171" viewBox="0 0 67.564 89.171">
  <g id="bar-chart" transform="translate(-3.998 0.001)">
    <g id="Grupo_1" data-name="Grupo 1" transform="translate(3.998 -0.001)">
      <path id="Caminho_1" data-name="Caminho 1" d="M37.855,14.171A1.349,1.349,0,0,1,36.8,13.66L28.517,3.249,18.106,11.528a1.351,1.351,0,1,1-1.683-2.113L27.89.293a1.353,1.353,0,0,1,1.9.216l9.122,11.468a1.349,1.349,0,0,1-.216,1.9A1.326,1.326,0,0,1,37.855,14.171Z" transform="translate(16.281 0.001)" fill="#eb9e30"/>
      <path id="Caminho_2" data-name="Caminho 2" d="M5.349,46.366a1.351,1.351,0,0,1,0-2.7A42.358,42.358,0,0,0,47.661,1.351a1.351,1.351,0,1,1,2.7,0A45.065,45.065,0,0,1,5.349,46.366Z" transform="translate(-3.998 0.001)" fill="#eb9e30"/>
    </g>
    <path id="Caminho_3" data-name="Caminho 3" d="M5.349,47.795A1.352,1.352,0,0,1,4,46.444V25.659a1.351,1.351,0,1,1,2.7,0V46.444A1.352,1.352,0,0,1,5.349,47.795Z" transform="translate(0 41.376)" fill="#eb9e30"/>
    <path id="Caminho_4" data-name="Caminho 4" d="M13.351,56.055A1.352,1.352,0,0,1,12,54.7v-33.9a1.351,1.351,0,0,1,2.7,0V54.7A1.352,1.352,0,0,1,13.351,56.055Z" transform="translate(13.62 33.115)" fill="#eb9e30"/>
    <path id="Caminho_5" data-name="Caminho 5" d="M21.352,61.99A1.352,1.352,0,0,1,20,60.639V17.319a1.351,1.351,0,1,1,2.7,0v43.32A1.352,1.352,0,0,1,21.352,61.99Z" transform="translate(27.239 27.18)" fill="#eb9e30"/>
    <path id="Caminho_6" data-name="Caminho 6" d="M29.353,70.724A1.352,1.352,0,0,1,28,69.373V12.188a1.351,1.351,0,0,1,2.7,0V69.373A1.352,1.352,0,0,1,29.353,70.724Z" transform="translate(40.857 18.447)" fill="#eb9e30"/>
  </g>
</svg>
