<svg id="Camada_1" data-name="Camada 1" xmlns="http://www.w3.org/2000/svg" viewBox="0 0 553.94 872.49"><defs><style>.cls-1{fill:#171717;}</style></defs><title>DD_logo</title><path class="cls-1" d="M746.56,516.65c0-117.48-95.57-213-213-213H427V623.18h53.17V357h53.16C621.37,357,693,428.59,693,516.65S621.37,676.34,533.31,676.34H373.62V303.6H320.46V729.71H533.51C651,729.71,746.56,634.14,746.56,516.65Z" transform="translate(-320.46 -93.59)"/><path class="cls-1" d="M584,201.13V93.59H530.26V197.28H480.75V93.8H427V197.28H320.46v53.16H533.51c146.7,0,266.21,119.51,266.21,266.21S680.21,782.87,533.51,782.87h-213V836H427v94h53.77V836h49.51v94H584V832c152.18-24.35,268.85-156.44,268.86-315.32C852.89,365.83,733.91,224.74,584,201.13Z" transform="translate(-320.46 -93.59)"/><path class="cls-1" d="M874.36,966.08h0v0Z" transform="translate(-320.46 -93.59)"/></svg>