<?xml version="1.0" encoding="utf-8"?>
<!-- Generator: Adobe Illustrator 23.0.0, SVG Export Plug-In . SVG Version: 6.00 Build 0)  -->
<svg version="1.1" id="Camada_1" xmlns="http://www.w3.org/2000/svg" xmlns:xlink="http://www.w3.org/1999/xlink" x="0px" y="0px"
	 viewBox="0 0 19.7 28.7" style="enable-background:new 0 0 19.7 28.7;" xml:space="preserve">
<g id="save-money" transform="translate(-8.982)">
	<path id="Caminho_13" d="M18.9,22.4c-0.1,0-0.2,0-0.2,0c-0.8-0.1-1.3-0.7-1.3-1.5c0-0.4-0.3-0.7-0.7-0.7S16,20.6,16,20.9
		c0,1.3,0.9,2.4,2.1,2.7v0.7c0,0.4,0.3,0.7,0.7,0.7s0.7-0.3,0.7-0.7v-0.6c1.5-0.3,2.5-1.8,2.2-3.4c-0.3-1.3-1.4-2.3-2.8-2.3
		c-0.8,0-1.5-0.7-1.5-1.5c0-0.8,0.7-1.5,1.5-1.5c0.8,0,1.5,0.7,1.5,1.5c0,0,0,0,0,0c0,0.4,0.3,0.7,0.7,0.7s0.7-0.3,0.7-0.7
		c0-1.3-0.9-2.5-2.3-2.8v-0.6c0-0.4-0.3-0.7-0.7-0.7s-0.7,0.3-0.7,0.7v0.6c-1.5,0.4-2.4,2-2,3.5c0.3,1.2,1.5,2.1,2.7,2.1
		c0.8,0,1.5,0.7,1.5,1.5C20.3,21.7,19.7,22.4,18.9,22.4L18.9,22.4z"/>
	<path id="Caminho_14" d="M9.2,18.8c0,5.3,4.3,9.6,9.6,9.6s9.6-4.3,9.6-9.6s-4.3-9.6-9.6-9.6S9.2,13.5,9.2,18.8L9.2,18.8z
		 M18.8,10.5c4.6,0,8.3,3.7,8.3,8.3s-3.7,8.3-8.3,8.3s-8.3-3.7-8.3-8.3C10.5,14.2,14.3,10.5,18.8,10.5L18.8,10.5z"/>
	<path id="Caminho_16" d="M19.5,7.3V1c0-0.4-0.3-0.7-0.7-0.7S18.2,0.6,18.2,1v6.3c0,0.4,0.3,0.7,0.7,0.7S19.5,7.7,19.5,7.3z"/>
	<path id="Caminho_17" d="M24.5,7.3v-3c0-0.4-0.3-0.7-0.7-0.7S23.2,4,23.2,4.3v3c0,0.4,0.3,0.7,0.7,0.7S24.5,7.7,24.5,7.3z"/>
	<path id="Caminho_18" d="M14.5,7.3v-3c0-0.4-0.3-0.7-0.7-0.7S13.2,4,13.2,4.3v3c0,0.4,0.3,0.7,0.7,0.7S14.5,7.7,14.5,7.3z"/>
</g>
</svg>
