<?xml version="1.0" encoding="utf-8"?>
<!-- Generator: Adobe Illustrator 23.0.0, SVG Export Plug-In . SVG Version: 6.00 Build 0)  -->
<svg version="1.1" id="Camada_1" xmlns="http://www.w3.org/2000/svg" xmlns:xlink="http://www.w3.org/1999/xlink" x="0px" y="0px"
	 viewBox="0 0 641 95" style="enable-background:new 0 0 641 95;" xml:space="preserve">
<style type="text/css">
	.st0{fill:#111111;}
	.st1{fill:#737373;}
</style>
<title>next-black-logo-oficial</title>
<path class="st0" d="M50.5,12.4c1,1.1,1.5,2.6,1.4,4.1v51.3c0.1,1.5-0.5,3-1.5,4.1c-1,1-2.4,1.6-3.8,1.6c-1.7,0.1-3.3-0.7-4.3-2
	L10.4,30v37.8c0.1,1.5-0.4,3-1.4,4.1c-1,1.1-2.4,1.6-3.8,1.6c-1.4,0.1-2.9-0.5-3.8-1.6c-1-1.1-1.5-2.6-1.4-4.1V16.5
	c-0.1-1.5,0.5-3,1.5-4.1c1-1,2.4-1.6,3.9-1.5c1.6-0.1,3.2,0.7,4.2,2l31.8,41.3V16.5c0-1.5,0.5-2.9,1.4-4.1c1-1,2.4-1.6,3.8-1.5
	C48.1,10.8,49.5,11.4,50.5,12.4z"/>
<path class="st0" d="M105.8,71.5c-1-1-1.5-2.5-1.4-3.9V16.7c-0.1-1.4,0.4-2.8,1.4-3.9c1.1-1,2.5-1.5,4-1.4h31.5
	c1.4-0.1,2.8,0.3,3.9,1.1c0.9,0.8,1.4,2,1.4,3.2c0.1,1.3-0.4,2.5-1.4,3.4c-1.1,0.9-2.5,1.3-3.9,1.2h-25.9v16.9h24.2
	c1.4-0.1,2.8,0.3,3.9,1.1c0.9,0.8,1.4,2,1.4,3.3c0.1,1.2-0.5,2.4-1.4,3.2c-1.1,0.8-2.5,1.2-3.9,1.1h-24.2v18h25.9
	c1.4-0.1,2.8,0.3,3.9,1.2c1,0.9,1.5,2.1,1.4,3.4c0.1,1.2-0.5,2.4-1.4,3.2c-1.1,0.8-2.5,1.2-3.9,1.1h-31.5
	C108.3,73,106.9,72.5,105.8,71.5z"/>
<path class="st0" d="M246.1,71l-19-23.2l18.3-22.3c0.9-0.9,1.3-2.1,1.3-3.3c0-1.4-0.6-2.7-1.6-3.6c-1-1-2.3-1.5-3.7-1.5
	c-1.5,0-2.9,0.7-3.8,1.9l-17,21L189.8,1.9C188.9,0.7,187.5,0,186,0c-1.4,0-2.7,0.5-3.7,1.5c-1,0.9-1.6,2.2-1.6,3.6
	c0,1.2,0.4,2.4,1.3,3.3l32,39.3l-32,38.9c-0.9,0.9-1.3,2.1-1.3,3.3c0,1.4,0.6,2.7,1.6,3.6c1,1,2.3,1.5,3.7,1.5
	c1.5,0,2.9-0.7,3.8-1.9l30.8-37.6l17.7,22c0.9,1.2,2.3,1.9,3.8,1.9c1.4,0,2.7-0.6,3.7-1.6c1-0.9,1.6-2.3,1.6-3.7
	C247.4,72.9,247,71.8,246.1,71z"/>
<path class="st0" d="M200.9,50.1c1.2-1.5,1.2-3.5,0-5l-1.2-1.4l-15.4-19.1c-0.5-0.6-1.2-0.9-1.9-1c-1.4,0.1-2.5,1.2-2.6,2.6
	c0,0.6,0.2,1.3,0.7,1.7l16,19.7l-16,19.4c-0.4,0.5-0.7,1.1-0.7,1.7c0.1,1.4,1.2,2.5,2.6,2.6c0.8,0,1.5-0.4,1.9-1l15.4-18.8
	L200.9,50.1z"/>
<path class="st0" d="M307.4,71.8c-1-1.1-1.6-2.6-1.5-4.1V20.5H290c-3.5,0-5.2-1.5-5.2-4.6s1.7-4.6,5.2-4.6h43.1
	c3.5,0,5.2,1.5,5.2,4.6s-1.7,4.6-5.2,4.6h-15.9v47.2c0.1,1.5-0.5,3-1.5,4.1c-1.1,1-2.6,1.6-4.1,1.5
	C310.1,73.4,308.5,72.8,307.4,71.8z"/>
<path class="st1" d="M405.2,39.2c1.8,1.9,2.6,4.7,2.6,8.4v17.2c0,0.5-0.2,1-0.5,1.4c-0.4,0.3-0.8,0.5-1.3,0.5c-0.5,0-1-0.2-1.3-0.5
	c-0.3-0.4-0.5-0.9-0.5-1.4v-3.6c-0.8,1.7-2.1,3.2-3.7,4.2c-1.7,1-3.6,1.5-5.6,1.5c-1.8,0-3.6-0.4-5.2-1.1c-1.5-0.7-2.8-1.8-3.7-3.2
	c-0.9-1.3-1.4-2.9-1.4-4.5c-0.1-1.9,0.5-3.7,1.7-5.1c1.5-1.4,3.5-2.3,5.6-2.6c3.6-0.6,7.3-0.9,11-0.8h1.3v-2.2
	c0-2.7-0.5-4.6-1.6-5.8s-2.8-1.8-5.1-1.8c-3,0-5.9,0.8-8.5,2.4c-0.3,0.2-0.6,0.4-0.9,0.6c-0.4,0.3-0.8,0.5-1.3,0.5
	c-0.4,0-0.8-0.2-1-0.5c-0.3-0.3-0.4-0.7-0.4-1.1c0-0.9,0.7-1.8,2.1-2.6c1.5-0.8,3.1-1.4,4.7-1.9c1.7-0.4,3.4-0.7,5.1-0.7
	C400.8,36.5,403.4,37.4,405.2,39.2z M401.7,61.1c1.7-1.8,2.6-4.3,2.5-6.8v-2H403c-3,0-5.9,0.1-8.9,0.5c-1.6,0.1-3.1,0.7-4.4,1.7
	c-0.9,0.9-1.4,2.1-1.3,3.4c-0.1,1.6,0.6,3.2,1.9,4.2c1.3,1.1,3,1.7,4.8,1.7C397.6,63.8,400,62.9,401.7,61.1z"/>
<path class="st1" d="M435.8,36.9c0.4,0.3,0.5,0.7,0.5,1.2c0,1-0.6,1.6-1.8,1.7l-1.8,0.2c-2.9,0.3-5,1.3-6.4,3.1
	c-1.4,1.8-2.1,4-2.1,6.2V65c0,0.5-0.2,1-0.5,1.4c-0.4,0.3-0.8,0.5-1.3,0.5c-0.5,0-1-0.2-1.4-0.5c-0.3-0.4-0.5-0.9-0.5-1.4V38.5
	c-0.1-1,0.6-1.8,1.6-1.9c0.1,0,0.2,0,0.3,0c0.5,0,0.9,0.2,1.3,0.5c0.3,0.4,0.5,0.8,0.5,1.3v3.9c1.7-3.5,4.7-5.4,9.2-5.7l0.8-0.1
	C434.8,36.5,435.3,36.6,435.8,36.9z"/>
<path class="st1" d="M464.6,38.3c2,1.3,3.6,3.1,4.6,5.3c1.1,2.5,1.7,5.2,1.6,8c0.1,2.8-0.5,5.6-1.6,8.1c-1,2.2-2.6,4.1-4.6,5.4
	c-2,1.3-4.4,1.9-6.8,1.9c-2.2,0.1-4.3-0.5-6.2-1.5c-1.8-1-3.1-2.6-3.9-4.5v4c0,0.5-0.2,1-0.5,1.4c-0.4,0.3-0.8,0.5-1.3,0.5
	c-0.5,0-1-0.2-1.4-0.5c-0.3-0.4-0.5-0.9-0.5-1.4V25.6c0-0.5,0.2-1,0.5-1.4c0.4-0.3,0.9-0.5,1.4-0.5c0.5,0,1,0.2,1.3,0.5
	c0.3,0.4,0.5,0.9,0.5,1.4v17.1c0.8-1.9,2.2-3.5,3.9-4.5c1.9-1,4-1.6,6.2-1.5C460.2,36.5,462.6,37.1,464.6,38.3z M464.5,60.5
	c1.7-2.1,2.6-5.1,2.6-8.9s-0.9-6.7-2.6-8.8c-1.8-2.1-4.4-3.3-7.2-3.1c-2.7-0.2-5.4,1-7.1,3.1c-1.7,2.1-2.5,5.1-2.5,8.9
	s0.8,6.8,2.5,8.9c1.7,2.1,4.4,3.3,7.1,3.1C460.1,63.8,462.7,62.6,464.5,60.5z"/>
<path class="st1" d="M481.6,29c-0.5-0.5-0.8-1.2-0.8-1.9c0-0.7,0.3-1.4,0.8-1.9c1.2-0.9,2.8-0.9,4,0c1,1,1.1,2.7,0,3.8c0,0,0,0,0,0
	C484.4,29.9,482.8,29.9,481.6,29z M482.2,66.3c-0.3-0.4-0.5-0.9-0.5-1.4V38.4c-0.1-1,0.6-1.8,1.6-1.9c0.1,0,0.2,0,0.3,0
	c0.5,0,1,0.2,1.3,0.5c0.3,0.4,0.5,0.9,0.5,1.4v26.5c0,0.5-0.2,1-0.5,1.4c-0.4,0.3-0.8,0.5-1.3,0.5C483.1,66.9,482.6,66.7,482.2,66.3
	z"/>
<path class="st1" d="M512.6,65.3c0,0.4-0.2,0.8-0.5,1.1c-0.5,0.3-1.2,0.5-1.8,0.4l-1.7-0.1c-3.1-0.2-5.3-1.1-6.8-2.8
	c-1.5-1.7-2.2-4.2-2.2-7.7V40.1H495c-0.4,0.1-0.8-0.1-1.1-0.4c-0.3-0.3-0.4-0.7-0.4-1.1c-0.1-0.8,0.5-1.4,1.2-1.5c0.1,0,0.2,0,0.3,0
	h4.6v-7.5c0-0.5,0.2-1,0.5-1.4c0.4-0.3,0.8-0.5,1.3-0.5c0.5,0,1,0.2,1.4,0.5c0.3,0.4,0.5,0.9,0.5,1.4v7.5h7.3c0.4,0,0.9,0.1,1.2,0.4
	c0.3,0.3,0.4,0.7,0.4,1.1c0,0.4-0.1,0.8-0.4,1.1c-0.3,0.3-0.8,0.4-1.2,0.4h-7.3v16.3c0,2.5,0.5,4.3,1.5,5.4c1.2,1.2,2.8,1.8,4.5,1.8
	l1.6,0.1C512,63.9,512.6,64.4,512.6,65.3z"/>
<path class="st1" d="M536.3,36.9c0.4,0.3,0.5,0.7,0.5,1.2c0,1-0.6,1.6-1.8,1.7l-1.8,0.2c-2.9,0.3-5,1.3-6.4,3.1
	c-1.4,1.8-2.1,4-2.1,6.2V65c0,0.5-0.2,1-0.5,1.4c-0.4,0.3-0.8,0.5-1.3,0.5c-0.5,0-1-0.2-1.4-0.5c-0.3-0.4-0.5-0.9-0.5-1.4V38.5
	c-0.1-1,0.6-1.8,1.6-1.9c0.1,0,0.2,0,0.3,0c0.5,0,0.9,0.2,1.3,0.5c0.3,0.4,0.5,0.8,0.5,1.3v3.9c1.7-3.5,4.7-5.4,9.2-5.7l0.8-0.1
	C535.3,36.5,535.8,36.6,536.3,36.9z"/>
<path class="st1" d="M563.8,39.2c1.8,1.9,2.6,4.7,2.6,8.4v17.2c0,0.5-0.2,1-0.5,1.4c-0.4,0.3-0.8,0.5-1.3,0.5c-0.5,0-1-0.2-1.3-0.5
	c-0.3-0.4-0.5-0.9-0.5-1.4v-3.6c-0.8,1.7-2.1,3.2-3.7,4.2c-1.7,1-3.6,1.5-5.6,1.5c-1.8,0-3.6-0.4-5.2-1.1c-1.5-0.7-2.8-1.8-3.7-3.2
	c-0.9-1.3-1.4-2.9-1.4-4.5c-0.1-1.9,0.5-3.7,1.7-5.1c1.5-1.4,3.5-2.3,5.6-2.6c3.6-0.6,7.3-0.9,11-0.8h1.3v-2.2
	c0-2.7-0.5-4.6-1.6-5.8s-2.8-1.8-5.1-1.8c-3,0-5.9,0.8-8.5,2.4c-0.3,0.2-0.6,0.4-0.9,0.6c-0.4,0.3-0.8,0.5-1.3,0.5
	c-0.4,0-0.8-0.2-1-0.5c-0.3-0.3-0.4-0.7-0.4-1.1c0-0.9,0.7-1.8,2.1-2.6c1.5-0.8,3.1-1.4,4.7-1.9c1.7-0.4,3.4-0.7,5.1-0.7
	C559.3,36.5,562,37.4,563.8,39.2z M560.2,61.1c1.7-1.8,2.6-4.3,2.5-6.8v-2h-1.1c-3,0-5.9,0.1-8.9,0.5c-1.6,0.1-3.1,0.7-4.4,1.7
	c-0.9,0.9-1.4,2.1-1.3,3.4c-0.1,1.6,0.6,3.2,1.9,4.2c1.3,1.1,3,1.7,4.8,1.7C556.2,63.9,558.5,62.9,560.2,61.1z"/>
<path class="st1" d="M603.7,37.1c0.3,0.4,0.5,0.9,0.5,1.4v26.4c0,4.3-1.1,7.5-3.2,9.7s-5.3,3.3-9.4,3.3c-2,0-3.9-0.2-5.8-0.6
	c-1.7-0.4-3.3-1.1-4.8-2c-1.5-0.9-2.2-1.8-2.2-2.6c0-0.4,0.1-0.8,0.4-1.1c0.3-0.3,0.6-0.4,1-0.4c0.3,0,0.7,0.1,1,0.3
	c0.4,0.2,0.7,0.4,0.9,0.5c1.3,0.8,2.7,1.4,4.2,1.9c1.7,0.6,3.6,0.8,5.4,0.8c2.9,0,5.2-0.8,6.7-2.4s2.2-3.9,2.2-7v-5.7
	c-0.8,1.9-2.1,3.5-3.9,4.6c-1.9,1.1-4.2,1.7-6.4,1.6c-2.4,0-4.8-0.6-6.9-1.8c-2-1.2-3.6-3-4.7-5.1c-1.1-2.4-1.7-5-1.7-7.6
	c0-2.6,0.5-5.2,1.7-7.6c1-2.1,2.7-3.9,4.7-5.1c2.1-1.2,4.5-1.8,6.9-1.8c2.2-0.1,4.4,0.4,6.3,1.5c1.7,1,3.1,2.6,3.9,4.5v-4.1
	c0-0.5,0.2-1,0.5-1.4c0.4-0.3,0.8-0.5,1.3-0.5C602.8,36.7,603.3,36.8,603.7,37.1z M598,59.3c1.8-2.4,2.8-5.3,2.6-8.3
	c0.2-3-0.8-5.9-2.6-8.3c-3.8-4-10-4.1-14-0.4c-0.1,0.1-0.2,0.2-0.3,0.3c-1.8,2.4-2.8,5.3-2.6,8.3c-0.2,3,0.8,5.9,2.6,8.3
	c1.8,2.1,4.5,3.2,7.2,3C594,62.2,596.3,61.3,598,59.3z"/>
<path class="st1" d="M640.4,60.7c0.3,0.3,0.4,0.7,0.4,1.1c0,0.9-0.7,1.8-2.1,2.6c-2.8,1.7-6,2.6-9.2,2.6c-4.5,0-8-1.4-10.6-4.1
	c-2.6-2.7-3.9-6.4-3.9-11.1c0-2.8,0.5-5.5,1.7-8c1.1-2.2,2.8-4.1,4.8-5.4c2.2-1.3,4.7-2,7.2-1.9c3.8,0,6.8,1.2,9,3.7
	S641,46,641,50.3c0,0.6-0.1,1.1-0.5,1.6c-0.4,0.4-1,0.6-1.6,0.5h-20.1c0.1,3.7,1.1,6.5,2.9,8.5c2,2,4.8,3.1,7.7,2.9
	c1.5,0.1,3-0.2,4.4-0.7c1.2-0.5,2.4-1.1,3.8-1.8c0.5-0.5,1.2-0.8,1.9-0.9C639.8,60.3,640.2,60.5,640.4,60.7z M622,42.1
	c-1.8,2.1-2.9,4.7-3,7.4h18.7c0.1-2.7-0.8-5.3-2.4-7.5c-1.5-1.8-3.7-2.6-6.5-2.6C626.3,39.4,623.8,40.4,622,42.1z"/>
</svg>
